<?xml version="1.0" encoding="UTF-8"?>
<svg width="171px" height="171px" viewBox="0 0 171 171" version="1.1" xmlns="http://www.w3.org/2000/svg" xmlns:xlink="http://www.w3.org/1999/xlink">
    <!-- Generator: Sketch 52.2 (67145) - http://www.bohemiancoding.com/sketch -->
    <title>icon garbage</title>
    <desc>Created with Sketch.</desc>
    <g id="Symbols" stroke="none" stroke-width="1" fill="none" fill-rule="evenodd">
        <g id="icon-garbage">
            <g>
                <rect id="Rectangle" fill="#72ACFF" x="0" y="0" width="171" height="171" rx="48"></rect>
                <path d="M81.5030218,48.2629811 C77.646944,48.2629811 71.4930392,46.7593415 71.4930392,49.3009413 C71.4930392,51.8425411 77.0837432,52.5112466 78.9036299,56.9083449 C80.7235165,61.3054432 86.3142205,62.192487 78.9036299,67.205955 C71.4930392,72.219423 66.1484472,72.219423 60.1106883,77.325065 C54.0729293,82.430707 51.5126234,88.3899611 53.2557683,98.029766 C53.6343391,100.123309 50.81592,103.1505 49.9635835,105.536991 C49.047891,108.100875 47.708221,110.676524 46.778691,113.082186 C44.5895122,118.747873 47.0999779,123.487021 53.2557683,125.026349 C64.4582381,127.827659 64.0824485,125.026349 71.4930392,125.026349 C78.9036299,125.026349 80.9167003,125.026349 88.1334983,125.026349 C95.3502963,125.026349 101.082999,123.693432 104.600928,123.693432 C108.118858,123.693432 121.743666,127.316274 124.906639,120.353525 C128.069611,113.390775 122.88732,110.410019 122.88732,105.075946 C122.88732,99.7418725 123.703025,78.7277159 104.600928,70.9022617 C85.4988314,63.0768076 107.831135,52.277763 104.600928,49.3009413 C101.370722,46.3241195 98.4549334,50.2018426 95.8950909,48.2629811 C93.3352485,46.3241195 90.7681652,44.2337719 88.1334983,45.2789457 C85.4988314,46.3241195 85.3590997,48.2629811 81.5030218,48.2629811 Z" id="Path-2" fill="#FFFFFF"></path>
            </g>
        </g>
    </g>
</svg>