<?xml version="1.0" encoding="UTF-8"?>
<svg width="171px" height="171px" viewBox="0 0 171 171" version="1.1" xmlns="http://www.w3.org/2000/svg" xmlns:xlink="http://www.w3.org/1999/xlink">
    <!-- Generator: Sketch 52.2 (67145) - http://www.bohemiancoding.com/sketch -->
    <title>icon hazardous</title>
    <desc>Created with Sketch.</desc>
    <g id="Symbols" stroke="none" stroke-width="1" fill="none" fill-rule="evenodd">
        <g id="icon-hazardous">
            <g>
                <rect id="Rectangle" fill="#FF8383" x="0" y="0" width="171" height="171" rx="48"></rect>
                <g id="有害" transform="translate(45.000000, 46.000000)" fill="#FFFFFF" fill-rule="nonzero">
                    <path d="M81.4381347,40.5571249 C81.4381347,37.7865122 78.3385754,0.0880015534 40.2991498,0.0880015534 C6.37239775,0.0880015534 0.0677132675,33.7914664 0.0677132675,40.754044 C0.0677132675,65.912846 23.764302,69.768571 23.7643019,69.768571 C22.4726396,76.4982305 27.1879455,81.2159676 34.6810641,77.8571221 C40.8056601,81.9746579 45.2016504,78.1740067 45.2016504,78.1740066 C50.1690428,80.8654216 57.8038196,77.6194352 56.7306759,69.7013417 C56.7307694,69.7013417 81.4381348,64.7892102 81.4381347,40.5571249 Z M23.8362999,50.6119686 C17.5628457,50.6119686 12.4753944,44.6961666 12.4753944,37.3975361 C12.4753944,30.1036743 17.5628457,24.1879658 23.8362999,24.1879659 C30.1049854,24.1879659 35.1924367,30.1036743 35.1924367,37.3975361 C35.1948678,44.6962601 30.1074165,50.6119685 23.8362999,50.6119686 Z M45.7394846,57.4400876 C45.5017979,61.9705365 37.6605645,63.451918 36.8298762,57.4400876 C36.7434786,56.2060238 37.9103132,51.4306883 41.2858959,51.4306883 C44.659141,51.4306883 45.9796025,55.9611372 45.7394846,57.4400876 Z M57.667117,50.6119686 C51.3912316,50.6119686 46.3062114,44.6961666 46.3062114,37.3975361 C46.3062114,30.1036743 51.3912316,24.1879658 57.667117,24.1879659 C63.9358024,24.1879659 69.0232537,30.1036743 69.0232537,37.3975361 C69.0255914,44.6962601 63.9381401,50.6119685 57.667117,50.6119686 Z" id="Shape"></path>
                </g>
            </g>
        </g>
    </g>
</svg>