<?xml version="1.0" encoding="UTF-8"?>
<svg width="171px" height="171px" viewBox="0 0 171 171" version="1.1" xmlns="http://www.w3.org/2000/svg" xmlns:xlink="http://www.w3.org/1999/xlink">
    <!-- Generator: Sketch 52.2 (67145) - http://www.bohemiancoding.com/sketch -->
    <title>icon foodwast</title>
    <desc>Created with Sketch.</desc>
    <g id="Symbols" stroke="none" stroke-width="1" fill="none" fill-rule="evenodd">
        <g id="icon-foodwast">
            <g>
                <rect id="Rectangle" fill="#F7E38A" x="0" y="0" width="171" height="171" rx="48"></rect>
                <g id="food" transform="translate(53.000000, 45.000000)" fill="#FFFFFF" fill-rule="nonzero">
                    <path d="M29.2858363,2.92857143 L29.2858363,32.2142857 C29.2858363,34.0751488 28.7444167,35.7682292 27.6613333,37.2935268 C26.578372,38.8188244 25.1675327,39.8865327 23.4285714,40.4966518 L23.4285714,76.1428571 C23.4285714,77.7291667 22.8489583,79.1019345 21.6897321,80.2611607 C20.530506,81.4203869 19.1577381,82 17.5714286,82 L11.7142857,82 C10.1279762,82 8.75520833,81.4203869 7.59598214,80.2611607 C6.43675595,79.1019345 5.85714286,77.7291667 5.85714286,76.1428571 L5.85714286,40.4966518 C4.11830357,39.8865327 2.70746429,38.8188244 1.62438095,37.2935268 C0.541297619,35.7682292 0,34.0751488 0,32.2142857 L0,2.92857143 C0,2.13541667 0.289806548,1.44903274 0.869419643,0.869419643 C1.44903274,0.289806548 2.13541667,0 2.92857143,0 C3.72172619,0 4.40811012,0.289806548 4.98772321,0.869419643 C5.56733631,1.44903274 5.85714286,2.13541667 5.85714286,2.92857143 L5.85714286,21.9642857 C5.85714286,22.7574405 6.1469494,23.4438244 6.7265625,24.0234375 C7.3061756,24.6030506 7.99255952,24.8928571 8.78571429,24.8928571 C9.57886905,24.8928571 10.265253,24.6030506 10.8448661,24.0234375 C11.4244792,23.4438244 11.7142857,22.7574405 11.7142857,21.9642857 L11.7142857,2.92857143 C11.7142857,2.13541667 12.0040923,1.44903274 12.5837054,0.869419643 C13.1633185,0.289806548 13.8497024,0 14.6428571,0 C15.4360119,0 16.1223958,0.289806548 16.7020089,0.869419643 C17.281622,1.44903274 17.5714286,2.13541667 17.5714286,2.92857143 L17.5714286,21.9642857 C17.5714286,22.7574405 17.8612351,23.4438244 18.4408482,24.0234375 C19.0204613,24.6030506 19.7068452,24.8928571 20.5,24.8928571 C21.2931548,24.8928571 21.9795387,24.6030506 22.5591518,24.0234375 C23.1387649,23.4438244 23.4285714,22.7574405 23.4285714,21.9642857 L23.4285714,2.92857143 C23.4285714,2.13541667 23.718378,1.44903274 24.2979911,0.869419643 C24.8776042,0.289806548 25.5639881,0 26.3571429,0 C27.1502976,0 27.8366815,0.289806548 28.4162946,0.869419643 C28.9959077,1.44903274 29.2857143,2.13541667 29.2857143,2.92857143 L29.2858363,2.92857143 Z M71.4286935,2.92857143 L71.4286935,76.1428571 C71.4286935,77.7291667 70.8490804,79.1019345 69.6898542,80.2611607 C68.530628,81.4203869 67.1578601,82 65.5715506,82 L59.7144077,82 C58.1280982,82 56.7553304,81.4203869 55.5961042,80.2611607 C54.436878,79.1019345 53.8572649,77.7291667 53.8572649,76.1428571 L53.8572649,52.7142857 L43.6072649,52.7142857 C43.2106875,52.7142857 42.8674345,52.5693214 42.577628,52.2796369 C42.2878214,51.9898304 42.1428571,51.6466994 42.1428571,51.25 L42.1428571,14.6428571 C42.1428571,10.6160714 43.5766369,7.16889881 46.4441964,4.30133929 C49.311756,1.43377976 52.7589286,0 56.7857143,0 L68.5,0 C69.2931548,0 69.9795387,0.289806548 70.5591518,0.869419643 C71.1387649,1.44903274 71.4285714,2.13541667 71.4285714,2.92857143 L71.4286935,2.92857143 Z" id="Shape"></path>
                </g>
            </g>
        </g>
    </g>
</svg>