<?xml version="1.0" encoding="UTF-8"?>
<svg width="171px" height="171px" viewBox="0 0 171 171" version="1.1" xmlns="http://www.w3.org/2000/svg" xmlns:xlink="http://www.w3.org/1999/xlink">
    <!-- Generator: Sketch 52.2 (67145) - http://www.bohemiancoding.com/sketch -->
    <title>icon recycle</title>
    <desc>Created with Sketch.</desc>
    <g id="Symbols" stroke="none" stroke-width="1" fill="none" fill-rule="evenodd">
        <g id="icon-recycle">
            <g>
                <rect id="Rectangle" fill="#75E0BB" x="0" y="0" width="171" height="171" rx="48"></rect>
                <g id="recycle" transform="translate(44.000000, 46.000000)" fill="#FFFFFF" fill-rule="nonzero">
                    <path d="M39.0212124,54.8169046 L38.3154026,72.0739825 L38.2205923,73.1060981 L18.4684535,71.7457014 C17.339509,71.6511565 16.2895731,71.1582972 15.3186458,70.2671236 C14.3477184,69.37595 13.6111831,68.3517132 13.1090398,67.194413 C12.7649137,66.3505119 12.5375446,65.4908533 12.4269326,64.6154372 C12.3163207,63.740021 12.3786496,62.7236629 12.6139195,61.5663628 C12.8491895,60.4090627 13.0370543,59.5494041 13.1775139,58.987387 C13.3179736,58.4253698 13.6550767,57.4247692 14.1888234,55.9855851 C14.7225701,54.546401 15.020169,53.7182573 15.0816201,53.5011541 C17.5273738,53.8758322 25.50636,54.3135403 39.0185787,54.8142783 L39.0212124,54.8169046 Z M20.8202748,27.3358418 L29.2847247,45.1102907 L22.3714761,40.7953646 C20.3962622,43.0469349 18.6484174,45.3055085 17.1279417,47.5710854 C15.6074659,49.8366623 14.4706206,51.7905911 13.7174057,53.4328717 C12.9641908,55.0751523 12.3452905,56.5528547 11.8607047,57.8659789 C11.3761188,59.1791031 11.0864208,60.1639462 10.9916105,60.8205083 L10.8046236,61.8053514 L1.86875602,45.0630182 C1.33500933,44.250632 1.05321215,43.3752159 1.02336448,42.4367698 C0.9935168,41.4983238 1.08744919,40.7638497 1.30516166,40.2333475 L1.6817691,39.3903218 C2.77911015,37.4206355 4.56645925,34.4818636 7.04381639,30.5740061 L0.459770115,26.5400886 L20.8202748,27.3358418 Z M78.712477,51.5813666 L69.8714196,68.4182448 C69.49569,69.3251759 68.9233169,70.0517713 68.1543003,70.5980309 C67.3852837,71.1442906 66.7031765,71.4646929 66.1079788,71.5592378 L65.2625872,71.7457014 C63.0363017,71.9645555 59.602941,72.1518945 54.9625052,72.3077186 L55.3391127,80 L44.5228414,62.7875683 L54.446316,45.811499 L54.7755183,53.9239801 C60.1059622,54.4247182 64.5427315,54.5026302 68.0858263,54.1577162 C71.628921,53.8128023 74.294143,53.2971822 76.0814921,52.610856 L78.712477,51.5813666 Z M41.7944127,8.24826883 C40.321342,10.2179551 36.1672478,17.0181875 29.3321299,28.648966 L14.4232155,19.8799228 L13.5304188,19.3179056 L24.112298,2.62284486 C24.7390992,1.65288381 25.679301,0.949049248 26.9329034,0.51134119 C28.1865058,0.0736331313 29.4409861,-0.0830663536 30.6963442,0.041242735 C31.4495591,0.104272695 32.209797,0.291611744 32.9770579,0.603259882 C33.7443187,0.914908019 34.4027234,1.24318906 34.9522718,1.58810301 C35.5018202,1.93301696 36.1523239,2.44863706 36.9037831,3.13496329 C37.6552422,3.82128953 38.2197145,4.36054585 38.5971998,4.75273227 C38.9746851,5.1449187 39.5391573,5.76208706 40.2906165,6.60423736 C41.0420756,7.44638767 41.543341,7.99352274 41.7944127,8.24564258 L41.7944127,8.24826883 Z M72.5998484,22.6453623 L82.5707281,39.6687041 C83.1343224,40.8260042 83.3300881,42.0139439 83.158025,43.2325231 C82.9859619,44.4511023 82.5549264,45.607527 81.8649183,46.7017972 C81.4575853,47.3268443 80.9405182,47.9054943 80.313717,48.4377473 C79.6869158,48.9700003 79.0908401,49.4077084 78.52549,49.7508715 C77.9601399,50.0940346 77.1999021,50.4380732 76.2447764,50.7829871 C75.2896508,51.1279011 74.5531154,51.3782701 74.0351705,51.5340941 C73.5172255,51.6899182 72.7095825,51.9087722 71.6122414,52.1906562 C70.5149004,52.4725402 69.7941668,52.6598793 69.4500406,52.7526734 C68.384303,50.5011031 64.2302088,43.6851132 56.9877578,32.3047037 L71.7070517,23.160107 L72.5998484,22.6453623 Z M65.8735867,12.0458239 L72.5524433,8.15372389 L62.2049561,25.6471641 L42.5002224,24.7095935 L49.6004579,20.675676 C48.5347203,17.8936036 47.3592486,15.2988702 46.0740427,12.8914759 C44.7888369,10.4840816 43.6054643,8.55378905 42.523925,7.1005983 C41.4423856,5.64740755 40.4310761,4.39643792 39.4899965,3.34768941 C38.5489168,2.2989409 37.8123815,1.57234552 37.2803905,1.16790328 L36.4797705,0.55861366 L55.5260996,0.60588613 C56.4987827,0.51134119 57.4082589,0.67591942 58.2545284,1.09962082 C59.1007978,1.52332222 59.7117973,1.96890902 60.0875268,2.43638123 L60.6037161,3.14021579 C61.8257151,5.04687209 63.5814607,8.01715897 65.8709531,12.0510764 L65.8735867,12.0458239 Z" id="Shape"></path>
                </g>
            </g>
        </g>
    </g>
</svg>